name rise30.8019peak61.5557fall86.2505.mot
datacolumns 19
datarows 36
range 1.47333300000000 1.53166200000000
endheader
time	ground_force1_vx	ground_force1_vy	ground_force1_vz	ground_force1_px	ground_force1_py	ground_force1_pz	ground_force2_vx	ground_force2_vy	ground_force2_vz	ground_force2_px	ground_force2_py	ground_force2_pz	ground_torque1_x	ground_torque1_y	ground_torque1_z	ground_torque2_x	ground_torque2_y	ground_torque2_z	
1.47333300000000	-2.76455200000000	674.56628200000000	27.31448600000000	0.13319500000000	0.00000000000000	0.10145500000000	0.00000000000000	0.00000000000000	0.00000000000000	0.00000000000000	0.00000000000000	0.00000000000000	0.00000000000000	11.36576900000000	0.00000000000000	0.00000000000000	0.00000000000000	0.00000000000000	
1.47499800000000	-3.34396100000000	675.57213400000001	27.28520200000000	0.13206400000000	0.00000000000000	0.10147000000000	0.00000000000000	0.00000000000000	0.00000000000000	0.00000000000000	0.00000000000000	0.00000000000000	0.00000000000000	11.49332700000000	0.00000000000000	0.00000000000000	0.00000000000000	0.00000000000000	
1.47666300000000	-3.93432000000000	676.60050400000000	27.26074400000000	0.13093100000000	0.00000000000000	0.10148600000000	0.00000000000000	0.00000000000000	0.00000000000000	0.00000000000000	0.00000000000000	0.00000000000000	0.00000000000000	11.62431100000000	0.00000000000000	0.00000000000000	0.00000000000000	0.00000000000000	
1.47832700000000	-4.53524700000000	677.65164600000003	27.24128300000000	0.12979600000000	0.00000000000000	0.10150200000000	0.00000000000000	0.00000000000000	0.00000000000000	0.00000000000000	0.00000000000000	0.00000000000000	0.00000000000000	11.75859700000000	0.00000000000000	0.00000000000000	0.00000000000000	0.00000000000000	
1.47999700000000	-5.14634200000000	678.72588499999995	27.22699800000000	0.12866000000000	0.00000000000000	0.10151800000000	0.00000000000000	0.00000000000000	0.00000000000000	0.00000000000000	0.00000000000000	0.00000000000000	0.00000000000000	11.89605800000000	0.00000000000000	0.00000000000000	0.00000000000000	0.00000000000000	
1.48166300000000	-5.76718600000000	679.82360700000004	27.21806600000000	0.12752400000000	0.00000000000000	0.10153400000000	0.00000000000000	0.00000000000000	0.00000000000000	0.00000000000000	0.00000000000000	0.00000000000000	0.00000000000000	12.03656100000000	0.00000000000000	0.00000000000000	0.00000000000000	0.00000000000000	
1.48332800000000	-6.39734700000000	680.94525899999996	27.21466900000000	0.12638900000000	0.00000000000000	0.10155100000000	0.00000000000000	0.00000000000000	0.00000000000000	0.00000000000000	0.00000000000000	0.00000000000000	0.00000000000000	12.17996900000000	0.00000000000000	0.00000000000000	0.00000000000000	0.00000000000000	
1.48500000000000	-7.03637500000000	682.09134200000005	27.21698900000000	0.12525400000000	0.00000000000000	0.10156700000000	0.00000000000000	0.00000000000000	0.00000000000000	0.00000000000000	0.00000000000000	0.00000000000000	0.00000000000000	12.32613900000000	0.00000000000000	0.00000000000000	0.00000000000000	0.00000000000000	
1.48666100000000	-7.68380900000000	683.26240800000005	27.22521000000000	0.12412200000000	0.00000000000000	0.10158400000000	0.00000000000000	0.00000000000000	0.00000000000000	0.00000000000000	0.00000000000000	0.00000000000000	0.00000000000000	12.47492700000000	0.00000000000000	0.00000000000000	0.00000000000000	0.00000000000000	
1.48832900000000	-8.33917400000000	684.45905000000005	27.23951400000000	0.12299200000000	0.00000000000000	0.10160200000000	0.00000000000000	0.00000000000000	0.00000000000000	0.00000000000000	0.00000000000000	0.00000000000000	0.00000000000000	12.62618000000000	0.00000000000000	0.00000000000000	0.00000000000000	0.00000000000000	
1.48999700000000	-9.00198500000000	685.68189800000005	27.26008000000000	0.12186500000000	0.00000000000000	0.10161900000000	0.00000000000000	0.00000000000000	0.00000000000000	0.00000000000000	0.00000000000000	0.00000000000000	0.00000000000000	12.77974300000000	0.00000000000000	0.00000000000000	0.00000000000000	0.00000000000000	
1.49167400000000	-9.67174700000000	686.93161599999996	27.28708800000000	0.12074200000000	0.00000000000000	0.10163700000000	0.00000000000000	0.00000000000000	0.00000000000000	0.00000000000000	0.00000000000000	0.00000000000000	0.00000000000000	12.93545800000000	0.00000000000000	0.00000000000000	0.00000000000000	0.00000000000000	
1.49332800000000	-10.34795500000000	688.20888900000000	27.32071400000000	0.11962200000000	0.00000000000000	0.10165500000000	0.00000000000000	0.00000000000000	0.00000000000000	0.00000000000000	0.00000000000000	0.00000000000000	0.00000000000000	13.09316000000000	0.00000000000000	0.00000000000000	0.00000000000000	0.00000000000000	
1.49500100000000	-11.03009700000000	689.51441999999997	27.36113100000000	0.11850700000000	0.00000000000000	0.10167300000000	0.00000000000000	0.00000000000000	0.00000000000000	0.00000000000000	0.00000000000000	0.00000000000000	0.00000000000000	13.25268200000000	0.00000000000000	0.00000000000000	0.00000000000000	0.00000000000000	
1.49666400000000	-11.71765500000000	690.84892200000002	27.40850800000000	0.11739700000000	0.00000000000000	0.10169100000000	0.00000000000000	0.00000000000000	0.00000000000000	0.00000000000000	0.00000000000000	0.00000000000000	0.00000000000000	13.41385200000000	0.00000000000000	0.00000000000000	0.00000000000000	0.00000000000000	
1.49833200000000	-12.41010300000000	692.21310900000003	27.46300900000000	0.11629200000000	0.00000000000000	0.10171000000000	0.00000000000000	0.00000000000000	0.00000000000000	0.00000000000000	0.00000000000000	0.00000000000000	0.00000000000000	13.57649400000000	0.00000000000000	0.00000000000000	0.00000000000000	0.00000000000000	
1.50000100000000	-13.10691100000000	693.60768900000005	27.52479300000000	0.11519300000000	0.00000000000000	0.10172900000000	0.00000000000000	0.00000000000000	0.00000000000000	0.00000000000000	0.00000000000000	0.00000000000000	0.00000000000000	13.74043000000000	0.00000000000000	0.00000000000000	0.00000000000000	0.00000000000000	
1.50166500000000	-13.80754600000000	695.03335700000002	27.59401500000000	0.11409900000000	0.00000000000000	0.10174800000000	0.00000000000000	0.00000000000000	0.00000000000000	0.00000000000000	0.00000000000000	0.00000000000000	0.00000000000000	13.90547600000000	0.00000000000000	0.00000000000000	0.00000000000000	0.00000000000000	
1.50333400000000	-14.51147100000000	696.49078499999996	27.67082100000000	0.11301200000000	0.00000000000000	0.10176700000000	0.00000000000000	0.00000000000000	0.00000000000000	0.00000000000000	0.00000000000000	0.00000000000000	0.00000000000000	14.07144700000000	0.00000000000000	0.00000000000000	0.00000000000000	0.00000000000000	
1.50499400000000	-15.21814500000000	697.98061399999995	27.75535300000000	0.11193200000000	0.00000000000000	0.10178700000000	0.00000000000000	0.00000000000000	0.00000000000000	0.00000000000000	0.00000000000000	0.00000000000000	0.00000000000000	14.23815300000000	0.00000000000000	0.00000000000000	0.00000000000000	0.00000000000000	
1.50666200000000	-15.92702800000000	699.50345000000004	27.84774600000000	0.11085800000000	0.00000000000000	0.10180600000000	0.00000000000000	0.00000000000000	0.00000000000000	0.00000000000000	0.00000000000000	0.00000000000000	0.00000000000000	14.40540200000000	0.00000000000000	0.00000000000000	0.00000000000000	0.00000000000000	
1.50832800000000	-16.63757800000000	701.05984799999999	27.94812500000000	0.10979100000000	0.00000000000000	0.10182600000000	0.00000000000000	0.00000000000000	0.00000000000000	0.00000000000000	0.00000000000000	0.00000000000000	0.00000000000000	14.57299800000000	0.00000000000000	0.00000000000000	0.00000000000000	0.00000000000000	
1.51000100000000	-17.34925100000000	702.65030999999999	28.05661000000000	0.10873100000000	0.00000000000000	0.10184700000000	0.00000000000000	0.00000000000000	0.00000000000000	0.00000000000000	0.00000000000000	0.00000000000000	0.00000000000000	14.74074500000000	0.00000000000000	0.00000000000000	0.00000000000000	0.00000000000000	
1.51166900000000	-18.06150600000000	704.27527599999996	28.17331200000000	0.10767800000000	0.00000000000000	0.10186700000000	0.00000000000000	0.00000000000000	0.00000000000000	0.00000000000000	0.00000000000000	0.00000000000000	0.00000000000000	14.90844200000000	0.00000000000000	0.00000000000000	0.00000000000000	0.00000000000000	
1.51333500000000	-18.77380200000000	705.93511300000000	28.29833300000000	0.10663200000000	0.00000000000000	0.10188800000000	0.00000000000000	0.00000000000000	0.00000000000000	0.00000000000000	0.00000000000000	0.00000000000000	0.00000000000000	15.07588700000000	0.00000000000000	0.00000000000000	0.00000000000000	0.00000000000000	
1.51499500000000	-19.48559800000000	707.63011200000005	28.43176600000000	0.10559300000000	0.00000000000000	0.10190900000000	0.00000000000000	0.00000000000000	0.00000000000000	0.00000000000000	0.00000000000000	0.00000000000000	0.00000000000000	15.24287500000000	0.00000000000000	0.00000000000000	0.00000000000000	0.00000000000000	
1.51666200000000	-20.19635900000000	709.36047399999995	28.57369500000000	0.10456200000000	0.00000000000000	0.10193100000000	0.00000000000000	0.00000000000000	0.00000000000000	0.00000000000000	0.00000000000000	0.00000000000000	0.00000000000000	15.40920200000000	0.00000000000000	0.00000000000000	0.00000000000000	0.00000000000000	
1.51833400000000	-20.90554800000000	711.12630899999999	28.72419500000000	0.10353800000000	0.00000000000000	0.10195300000000	0.00000000000000	0.00000000000000	0.00000000000000	0.00000000000000	0.00000000000000	0.00000000000000	0.00000000000000	15.57466100000000	0.00000000000000	0.00000000000000	0.00000000000000	0.00000000000000	
1.51999500000000	-21.61263500000000	712.92762700000003	28.88333000000000	0.10252100000000	0.00000000000000	0.10197500000000	0.00000000000000	0.00000000000000	0.00000000000000	0.00000000000000	0.00000000000000	0.00000000000000	0.00000000000000	15.73904500000000	0.00000000000000	0.00000000000000	0.00000000000000	0.00000000000000	
1.52166200000000	-22.31709300000000	714.76432999999997	29.05115400000000	0.10151200000000	0.00000000000000	0.10199800000000	0.00000000000000	0.00000000000000	0.00000000000000	0.00000000000000	0.00000000000000	0.00000000000000	0.00000000000000	15.90214500000000	0.00000000000000	0.00000000000000	0.00000000000000	0.00000000000000	
1.52333300000000	-23.01839800000000	716.63620600000002	29.22771300000000	0.10051000000000	0.00000000000000	0.10202100000000	0.00000000000000	0.00000000000000	0.00000000000000	0.00000000000000	0.00000000000000	0.00000000000000	0.00000000000000	16.06375300000000	0.00000000000000	0.00000000000000	0.00000000000000	0.00000000000000	
1.52500000000000	-23.71603300000000	718.54292699999996	29.41303800000000	0.09951500000000	0.00000000000000	0.10204400000000	0.00000000000000	0.00000000000000	0.00000000000000	0.00000000000000	0.00000000000000	0.00000000000000	0.00000000000000	16.22366100000000	0.00000000000000	0.00000000000000	0.00000000000000	0.00000000000000	
1.52666200000000	-24.40948400000000	720.48403800000006	29.60715200000000	0.09852700000000	0.00000000000000	0.10206800000000	0.00000000000000	0.00000000000000	0.00000000000000	0.00000000000000	0.00000000000000	0.00000000000000	0.00000000000000	16.38166200000000	0.00000000000000	0.00000000000000	0.00000000000000	0.00000000000000	
1.52833400000000	-25.09824600000000	722.45895800000005	29.81006400000000	0.09754700000000	0.00000000000000	0.10209300000000	0.00000000000000	0.00000000000000	0.00000000000000	0.00000000000000	0.00000000000000	0.00000000000000	0.00000000000000	16.53754900000000	0.00000000000000	0.00000000000000	0.00000000000000	0.00000000000000	
1.52999500000000	-25.78181600000000	724.46697099999994	30.02177400000000	0.09657300000000	0.00000000000000	0.10211800000000	0.00000000000000	0.00000000000000	0.00000000000000	0.00000000000000	0.00000000000000	0.00000000000000	0.00000000000000	16.69111800000000	0.00000000000000	0.00000000000000	0.00000000000000	0.00000000000000	
1.53166200000000	-26.45970100000000	726.50722599999995	30.24226900000000	0.09560700000000	0.00000000000000	0.10214400000000	0.00000000000000	0.00000000000000	0.00000000000000	0.00000000000000	0.00000000000000	0.00000000000000	0.00000000000000	16.84216500000000	0.00000000000000	0.00000000000000	0.00000000000000	0.00000000000000	
